# Blender 4.5.1 LTS
# www.blender.org
mtllib Antenna.mtl
o Cube
v 1.000000 0.182572 -1.000000
v 1.000000 -1.547735 -1.000000
v 1.000000 0.182572 1.000000
v 1.000000 -1.547735 1.000000
v -1.000000 0.182572 -1.000000
v -1.000000 -1.547735 -1.000000
v -1.000000 0.182572 1.000000
v -1.000000 -1.547735 1.000000
v 1.000000 0.614405 1.000000
v -1.000000 0.614405 1.000000
v 1.000000 0.614405 -1.000000
v -1.000000 0.614405 -1.000000
v 2.269486 0.182572 -1.000000
v 2.269486 -1.547735 -1.000000
v 2.269486 0.182572 1.000000
v 2.269486 -1.547735 1.000000
v -1.000000 -1.547735 1.686400
v -1.000000 0.182572 1.686400
v 1.000000 0.182572 1.686400
v 1.000000 -1.547735 1.686400
v 2.269486 0.182572 1.686400
v 2.269486 -1.547735 1.686400
v 1.000000 2.310641 1.000000
v -1.000000 2.310641 1.000000
v 1.000000 2.310641 -1.000000
v -1.000000 2.310641 -1.000000
v 0.404666 3.280820 0.404666
v -0.404666 3.280820 0.404666
v 0.404666 3.280820 -0.404666
v -0.404666 3.280820 -0.404666
v 0.404666 8.779187 0.404666
v -0.404666 8.779187 0.404666
v 0.404666 8.779187 -0.404666
v -0.404666 8.779187 -0.404666
v 0.206458 9.498886 0.206458
v -0.206458 9.498886 0.206458
v 0.206458 9.498886 -0.206458
v -0.206458 9.498886 -0.206458
v 0.206458 12.438652 0.206458
v -0.206458 12.438652 0.206458
v 0.206458 12.438652 -0.206458
v -0.206458 12.438652 -0.206458
v 0.206458 12.716372 0.206458
v -0.206458 12.716372 0.206458
v 0.206458 12.716372 -0.206458
v -0.206458 12.716372 -0.206458
v 0.206458 14.558451 0.206458
v -0.206458 14.558451 0.206458
v 0.206458 14.558451 -0.206458
v -0.206458 14.558451 -0.206458
v 0.206458 23.444172 0.206458
v -0.206458 23.444172 0.206458
v 0.206458 23.444172 -0.206458
v -0.206458 23.444172 -0.206458
v 0.078948 24.802547 0.078948
v -0.078948 24.802547 0.078948
v 0.078948 24.802547 -0.078948
v -0.078948 24.802547 -0.078948
v 0.078948 28.579433 0.078948
v -0.078948 28.579433 0.078948
v 0.078948 28.579433 -0.078948
v -0.078948 28.579433 -0.078948
v 0.564038 12.438652 -0.206458
v 0.564038 12.438652 0.206458
v 0.564038 12.716372 -0.206458
v 0.564038 12.716372 0.206458
v 0.831174 11.742951 -1.240836
v 0.831174 11.742951 1.240836
v 0.831174 13.412082 -1.240836
v 0.831174 13.412082 1.240836
v 1.140128 11.742951 -1.240836
v 1.140128 11.742951 1.240836
v 1.140128 13.412082 -1.240836
v 1.140128 13.412082 1.240836
v 0.842955 12.319425 -0.383733
v 0.842955 12.319425 0.383733
v 0.842955 12.835608 -0.383733
v 0.842955 12.835608 0.383733
v 0.842955 12.423631 -0.228799
v 0.842955 12.423631 0.228799
v 0.842955 12.731402 -0.228799
v 0.842955 12.731402 0.228799
v 1.214321 12.423631 -0.228799
v 1.214321 12.423631 0.228799
v 1.214321 12.731402 -0.228799
v 1.214321 12.731402 0.228799
v 1.666341 12.528870 -0.072328
v 1.666341 12.528870 0.072328
v 1.666341 12.626163 -0.072328
v 1.666341 12.626163 0.072328
v 2.862546 29.131851 2.862546
v -2.862546 29.131851 2.862546
v 2.862546 29.131851 -2.862546
v -2.862546 29.131851 -2.862546
v 1.628415 28.907387 1.628415
v -1.628415 28.907387 1.628415
v 1.628415 28.907387 -1.628415
v -1.628415 28.907387 -1.628415
v 0.349490 28.805542 0.349490
v -0.349490 28.805542 0.349490
v 0.349490 28.805542 -0.349490
v -0.349490 28.805542 -0.349490
v 0.349490 29.096586 0.349490
v -0.349490 29.096586 0.349490
v 0.349490 29.096586 -0.349490
v -0.349490 29.096586 -0.349490
v 0.088204 29.338491 0.088204
v -0.088204 29.338491 0.088204
v 0.088204 29.338491 -0.088204
v -0.088204 29.338491 -0.088204
v 0.017084 33.425617 0.017084
v -0.017084 33.425617 0.017084
v 0.017084 33.425617 -0.017084
v -0.017084 33.425617 -0.017084
v 0.017084 33.491291 0.017084
v -0.017084 33.491291 0.017084
v 0.017084 33.491291 -0.017084
v -0.017084 33.491291 -0.017084
v 0.187692 33.097694 0.187692
v -0.187692 33.097694 0.187692
v -0.187692 33.097694 -0.187692
v 0.187692 33.097694 -0.187692
v 0.187692 33.819214 0.187692
v -0.187692 33.819214 0.187692
v -0.187692 33.819214 -0.187692
v 0.187692 33.819214 -0.187692
vn -1.0000 -0.0000 -0.0000
vn -0.0000 -1.0000 -0.0000
vn -0.0000 -0.0000 -1.0000
vn 1.0000 -0.0000 -0.0000
vn -0.0000 -0.0000 1.0000
vn -0.0000 1.0000 -0.0000
vn -0.8523 0.5230 -0.0000
vn -0.0000 0.5230 0.8523
vn -0.0000 0.5230 -0.8523
vn 0.8523 0.5230 -0.0000
vn 0.9641 0.2655 -0.0000
vn -0.9641 0.2655 -0.0000
vn -0.0000 0.2655 0.9641
vn -0.0000 0.2655 -0.9641
vn -0.0000 0.0935 -0.9956
vn 0.9956 0.0935 -0.0000
vn -0.9956 0.0935 -0.0000
vn -0.0000 0.0935 0.9956
vn -0.0000 -0.9809 0.1947
vn -0.9682 -0.0000 0.2501
vn -0.9335 0.3585 -0.0000
vn -0.9682 -0.0000 -0.2501
vn -0.9335 -0.3585 -0.0000
vn 0.9448 -0.0000 -0.3276
vn 0.8888 -0.4582 -0.0000
vn 0.9448 -0.0000 0.3276
vn 0.8888 0.4582 -0.0000
vn 0.3271 -0.0000 0.9450
vn 0.2268 0.9740 -0.0000
vn 0.3271 -0.0000 -0.9450
vn 0.2268 -0.9740 -0.0000
vn 0.1789 0.9839 -0.0000
vn -0.0000 -0.9809 -0.1947
vn 0.1947 -0.9809 -0.0000
vn -0.1947 -0.9809 -0.0000
vn -0.0000 0.9968 0.0794
vn -0.0000 0.9839 -0.1789
vn -0.0000 0.9839 0.1789
vn -0.1789 0.9839 -0.0000
vn -0.0794 0.9968 -0.0000
vn 0.0794 0.9968 -0.0000
vn -0.0000 0.9968 -0.0794
vn -0.0000 0.7338 0.6794
vn -0.0000 0.0174 -0.9998
vn -0.0000 0.7338 -0.6794
vn 0.6794 0.7338 -0.0000
vn -0.6794 0.7338 -0.0000
vn 0.9998 0.0174 -0.0000
vn -0.9998 0.0174 -0.0000
vn -0.0000 0.0174 0.9998
vn -0.0000 -0.4615 -0.8871
vn -0.7071 -0.0000 0.7071
vn -0.0000 0.4615 0.8871
vn 0.7071 -0.0000 -0.7071
vn -0.0000 -0.4615 0.8871
vn -0.7071 -0.0000 -0.7071
vn -0.0000 0.4615 -0.8871
vn 0.7071 -0.0000 0.7071
vt 1.064809 -6.068394
vt 0.240997 -6.068394
vt 0.240997 -5.890519
vt 1.064809 -5.890519
vt 0.240997 -6.781118
vt -0.041736 -6.781118
vt -0.041736 -6.068394
vt 1.064809 -6.781118
vt 0.079134 0.905054
vt 0.902946 0.905054
vt 0.902946 0.081241
vt 0.079134 0.081241
vt 0.902946 -6.781118
vt 0.902946 -6.068394
vt 1.425855 -6.068394
vt 1.425855 -6.781118
vt 0.079134 -6.781118
vt 0.079134 -6.068394
vt 1.064809 -5.191829
vt 0.240997 -5.191829
vt 0.079134 -5.890519
vt 0.902946 -5.890519
vt 1.425855 0.905054
vt 1.425855 0.081241
vt 0.902946 -0.201491
vt 1.425855 -0.201491
vt 0.079134 -0.201491
vt 0.486218 -4.792207
vt 0.819587 -4.792207
vt 0.902946 -5.191829
vt 0.079134 -5.191829
vt 0.657724 -4.792207
vt 0.324355 -4.792207
vt 0.324355 -2.527395
vt 0.657724 -2.527395
vt 0.486218 -2.527395
vt 0.819587 -2.527395
vt 0.737944 -2.230947
vt 0.567862 -2.230947
vt 0.567862 -1.020039
vt 0.737944 -1.020039
vt 0.576081 -2.230947
vt 0.405999 -2.230947
vt 0.576081 -1.020039
vt 0.405999 -1.020039
vt 0.405999 -0.905645
vt 0.576081 -0.905645
vt 0.737944 -0.905645
vt 0.567862 -0.905645
vt 0.567862 -0.146881
vt 0.737944 -0.146881
vt 0.723371 -1.020039
vt 0.723371 -0.905645
vt 0.567862 3.513202
vt 0.737944 3.513202
vt 0.576081 -0.146881
vt 0.405999 -0.146881
vt 0.576081 3.513202
vt 0.405999 3.513202
vt 0.458521 4.072725
vt 0.523559 4.072725
vt 0.685422 4.072725
vt 0.620384 4.072725
vt 0.620384 5.628449
vt 0.685422 5.628449
vt 0.458521 0.460628
vt 0.523559 0.460628
vt 1.670140 -0.685953
vt -0.688061 -0.685953
vt 0.523559 5.628449
vt 0.458521 5.628449
vt 0.141795 -1.306602
vt 0.141795 -0.619078
vt 0.576081 0.408106
vt 0.576081 0.578189
vt 0.723371 0.578189
vt 0.723371 0.408106
vt 0.833406 -1.306602
vt 0.833406 -0.619078
vt 0.960666 -0.619078
vt 0.960666 -1.306602
vt 1.164011 -0.619078
vt 1.164011 -1.306602
vt 0.494841 -1.069150
vt 0.494841 -0.856531
vt 0.833406 -0.017960
vt 0.833406 1.004256
vt 0.960666 1.004256
vt 0.960666 -0.017960
vt 0.810965 -0.856531
vt 0.558659 -0.899453
vt 0.747147 -0.899453
vt 0.810965 -1.069150
vt 0.838258 -1.026227
vt 0.838258 -0.899453
vt 0.991226 -0.899453
vt 0.991226 -1.026227
vt 0.747147 -1.026227
vt 0.558659 -1.026227
vt 1.177416 -0.982878
vt 1.177416 -0.942802
vt 0.838258 0.398904
vt 0.838258 0.587391
vt 0.991226 0.587391
vt 0.991226 0.398904
vt 0.623111 -0.982878
vt 0.682695 -0.982878
vt 0.682695 -0.942802
vt 0.623111 -0.942802
vt 1.177416 0.463356
vt 1.177416 0.522940
vt -0.688061 1.672248
vt -0.179715 -0.177607
vt -0.179715 1.163902
vt 0.523559 0.525667
vt 0.458521 0.525667
vt 1.670140 1.672248
vt 1.161794 1.163902
vt 0.347082 0.637105
vt 0.634997 0.637105
vt 1.161794 -0.177607
vt 0.796860 5.721583
vt 0.508946 5.721583
vt 0.508946 5.841466
vt 0.796860 5.841466
vt 0.634997 0.349190
vt 0.347082 0.349190
vt 0.527371 0.456816
vt 0.454708 0.456816
vt 0.347082 5.721583
vt 0.634997 5.721583
vt 0.634997 5.841466
vt 0.347082 5.841466
vt 0.527371 5.941109
vt 0.454708 5.941109
vt 0.484003 7.624621
vt 0.498077 7.624621
vt 0.454708 0.529479
vt 0.527371 0.529479
vt 0.659940 7.624621
vt 0.645866 7.624621
vt 0.645866 7.651672
vt 0.659940 7.651672
vt 0.616571 5.941109
vt 0.689235 5.941109
vt 0.498077 0.500184
vt 0.484003 0.500184
vt 0.484003 0.486111
vt 0.498077 0.486111
vt 0.568351 7.489548
vt 0.413728 7.489548
vt 0.484003 7.651672
vt 0.413728 7.786747
vt 0.568351 7.786747
vt 0.498077 7.651672
s 0
usemtl Material
f 5/1/1 7/2/1 10/3/1 12/4/1
f 7/2/1 8/5/1 17/6/1 18/7/1
f 8/5/1 7/2/1 5/1/1 6/8/1
f 6/9/2 2/10/2 4/11/2 8/12/2
f 2/13/3 1/14/3 13/15/3 14/16/3
f 6/17/3 5/18/3 1/14/3 2/13/3
f 9/3/4 11/4/4 25/19/4 23/20/4
f 3/2/4 1/1/4 11/4/4 9/3/4
f 1/14/3 5/18/3 12/21/3 11/22/3
f 7/18/5 3/14/5 9/22/5 10/21/5
f 14/8/4 13/1/4 15/2/4 16/5/4
f 4/11/2 2/10/2 14/23/2 16/24/2
f 1/10/6 3/11/6 15/24/6 13/23/6
f 15/24/6 3/11/6 19/25/6 21/26/6
f 20/13/5 19/14/5 18/18/5 17/17/5
f 19/14/5 20/13/5 22/16/5 21/15/5
f 16/5/4 15/2/4 21/7/4 22/6/4
f 8/12/2 4/11/2 20/25/2 17/27/2
f 3/11/6 7/12/6 18/27/6 19/25/6
f 4/11/2 16/24/2 22/26/2 20/25/2
f 26/19/7 24/20/7 28/28/7 30/29/7
f 12/4/1 10/3/1 24/20/1 26/19/1
f 10/21/5 9/22/5 23/30/5 24/31/5
f 11/22/3 12/21/3 26/31/3 25/30/3
f 29/32/3 30/33/3 34/34/3 33/35/3
f 24/31/8 23/30/8 27/32/8 28/33/8
f 25/30/9 26/31/9 30/33/9 29/32/9
f 23/20/10 25/19/10 29/29/10 27/28/10
f 31/36/11 33/37/11 37/38/11 35/39/11
f 27/28/4 29/29/4 33/37/4 31/36/4
f 30/29/1 28/28/1 32/36/1 34/37/1
f 28/33/5 27/32/5 31/35/5 32/34/5
f 38/38/1 36/39/1 40/40/1 42/41/1
f 34/37/12 32/36/12 36/39/12 38/38/12
f 32/34/13 31/35/13 35/42/13 36/43/13
f 33/35/14 34/34/14 38/43/14 37/42/14
f 41/44/3 42/45/3 46/46/3 45/47/3
f 36/43/5 35/42/5 39/44/5 40/45/5
f 37/42/3 38/43/3 42/45/3 41/44/3
f 35/39/4 37/38/4 41/41/4 39/40/4
f 46/48/1 44/49/1 48/50/1 50/51/1
f 43/47/5 39/44/5 64/52/5 66/53/5
f 42/41/1 40/40/1 44/49/1 46/48/1
f 40/45/5 39/44/5 43/47/5 44/46/5
f 50/51/1 48/50/1 52/54/1 54/55/1
f 44/46/5 43/47/5 47/56/5 48/57/5
f 45/47/3 46/46/3 50/57/3 49/56/3
f 43/49/4 45/48/4 49/51/4 47/50/4
f 53/58/15 54/59/15 58/60/15 57/61/15
f 48/57/5 47/56/5 51/58/5 52/59/5
f 49/56/3 50/57/3 54/59/3 53/58/3
f 47/50/4 49/51/4 53/55/4 51/54/4
f 58/62/1 56/63/1 60/64/1 62/65/1
f 51/54/16 53/55/16 57/62/16 55/63/16
f 54/55/17 52/54/17 56/63/17 58/62/17
f 52/59/18 51/58/18 55/61/18 56/60/18
f 60/66/19 59/67/19 91/68/19 92/69/19
f 56/60/5 55/61/5 59/70/5 60/71/5
f 57/61/3 58/60/3 62/71/3 61/70/3
f 55/63/4 57/62/4 61/65/4 59/64/4
f 66/49/20 64/40/20 68/72/20 70/73/20
f 39/74/2 41/75/2 63/76/2 64/77/2
f 41/44/3 45/47/3 65/53/3 63/52/3
f 45/75/6 43/74/6 66/77/6 65/76/6
f 67/78/3 69/79/3 73/80/3 71/81/3
f 65/48/21 66/49/21 70/73/21 69/82/21
f 63/41/22 65/48/22 69/82/22 67/83/22
f 64/40/23 63/41/23 67/83/23 68/72/23
f 74/73/24 72/72/24 76/84/24 78/85/24
f 68/86/2 67/87/2 71/88/2 72/89/2
f 70/79/5 68/78/5 72/81/5 74/80/5
f 69/87/6 70/86/6 74/89/6 73/88/6
f 77/90/4 78/85/4 82/91/4 81/92/4
f 73/82/25 74/73/25 78/85/25 77/90/25
f 71/83/26 73/82/26 77/90/26 75/93/26
f 72/72/27 71/83/27 75/93/27 76/84/27
f 79/94/3 81/95/3 85/96/3 83/97/3
f 75/93/4 77/90/4 81/92/4 79/98/4
f 76/84/4 75/93/4 79/98/4 80/99/4
f 78/85/4 76/84/4 80/99/4 82/91/4
f 86/96/28 84/97/28 88/100/28 90/101/28
f 80/102/2 79/103/2 83/104/2 84/105/2
f 82/95/5 80/94/5 84/97/5 86/96/5
f 81/103/6 82/102/6 86/105/6 85/104/6
f 88/106/4 87/107/4 89/108/4 90/109/4
f 85/104/29 86/105/29 90/110/29 89/111/29
f 83/97/30 85/96/30 89/101/30 87/100/30
f 84/105/31 83/104/31 87/111/31 88/110/31
f 94/112/32 92/69/32 96/113/32 98/114/32
f 61/115/33 62/116/33 94/112/33 93/117/33
f 59/67/34 61/115/34 93/117/34 91/68/34
f 62/116/35 60/66/35 92/69/35 94/112/35
f 97/118/36 98/114/36 102/119/36 101/120/36
f 92/69/37 91/68/37 95/121/37 96/113/37
f 93/117/38 94/112/38 98/114/38 97/118/38
f 91/68/39 93/117/39 97/118/39 95/121/39
f 102/122/1 100/123/1 104/124/1 106/125/1
f 95/121/40 97/118/40 101/120/40 99/126/40
f 98/114/41 96/113/41 100/127/41 102/119/41
f 96/113/42 95/121/42 99/126/42 100/127/42
f 104/127/43 103/126/43 107/128/43 108/129/43
f 100/130/5 99/131/5 103/132/5 104/133/5
f 101/131/3 102/130/3 106/133/3 105/132/3
f 99/123/4 101/122/4 105/125/4 103/124/4
f 109/134/44 110/135/44 114/136/44 113/137/44
f 105/120/45 106/119/45 110/138/45 109/139/45
f 103/126/46 105/120/46 109/139/46 107/128/46
f 106/119/47 104/127/47 108/129/47 110/138/47
f 114/140/1 112/141/1 116/142/1 118/143/1
f 107/144/48 109/145/48 113/140/48 111/141/48
f 110/145/49 108/144/49 112/141/49 114/140/49
f 108/135/50 107/134/50 111/137/50 112/136/50
f 117/146/6 118/147/6 116/148/6 115/149/6
f 112/136/51 111/137/51 119/150/51 120/151/51
f 114/136/52 118/152/52 125/153/52 121/151/52
f 111/141/4 113/140/4 117/143/4 115/142/4
f 120/151/5 119/150/5 123/154/5 124/153/5
f 122/150/3 121/151/3 125/153/3 126/154/3
f 118/152/53 117/155/53 126/154/53 125/153/53
f 111/137/54 115/155/54 123/154/54 119/150/54
f 113/137/55 114/136/55 121/151/55 122/150/55
f 116/152/56 112/136/56 120/151/56 124/153/56
f 115/155/57 116/152/57 124/153/57 123/154/57
f 117/155/58 113/137/58 122/150/58 126/154/58
