# Blender 4.5.1 LTS
# www.blender.org
mtllib Desk.mtl
o Cube
v 2.340609 0.038882 0.000000
v 2.340609 -0.087726 0.000000
v 2.340609 0.038882 1.968445
v 2.340609 -0.087726 1.968445
v 0.000000 0.038882 0.000000
v 0.000000 0.038882 1.968445
v 0.000000 -0.087726 1.968445
v 0.000000 -0.087726 0.000000
v 0.000000 -0.087726 1.968445
v 2.340609 -0.087726 0.000000
v 2.340609 -0.087726 1.968445
v 1.787919 -0.059748 1.478231
v 1.787919 -0.059748 1.895412
v 2.283974 -0.059748 1.478231
v 2.283974 -0.059748 1.895412
v 1.879788 -2.224691 1.555492
v 1.879788 -2.224691 1.818151
v 2.192106 -2.224691 1.555492
v 2.192106 -2.224691 1.818151
v -2.340609 0.038882 0.000000
v -2.340609 -0.087726 0.000000
v -2.340609 0.038882 1.968445
v -2.340609 -0.087726 1.968445
v -2.340609 -0.087726 0.000000
v -2.340609 -0.087726 1.968445
v -1.787919 -0.059748 1.478231
v -1.787919 -0.059748 1.895412
v -2.283974 -0.059748 1.478231
v -2.283974 -0.059748 1.895412
v -1.879788 -2.224691 1.555492
v -1.879788 -2.224691 1.818151
v -2.192106 -2.224691 1.555492
v -2.192106 -2.224691 1.818151
v 2.340609 0.038882 -1.968445
v 2.340609 -0.087726 -1.968445
v 0.000000 0.038882 -1.968445
v 0.000000 -0.087726 -1.968445
v 0.000000 -0.087726 -1.968445
v 2.340609 -0.087726 -1.968445
v 1.787919 -0.059748 -1.478231
v 1.787919 -0.059748 -1.895412
v 2.283974 -0.059748 -1.478231
v 2.283974 -0.059748 -1.895412
v 1.879788 -2.224691 -1.555492
v 1.879788 -2.224691 -1.818151
v 2.192106 -2.224691 -1.555492
v 2.192106 -2.224691 -1.818151
v -2.340609 0.038882 -1.968445
v -2.340609 -0.087726 -1.968445
v -2.340609 -0.087726 -1.968445
v -1.787919 -0.059748 -1.478231
v -1.787919 -0.059748 -1.895412
v -2.283974 -0.059748 -1.478231
v -2.283974 -0.059748 -1.895412
v -1.879788 -2.224691 -1.555492
v -1.879788 -2.224691 -1.818151
v -2.192106 -2.224691 -1.555492
v -2.192106 -2.224691 -1.818151
vn -0.0000 1.0000 -0.0000
vn -0.0000 -0.0000 1.0000
vn -0.0000 -0.9338 -0.3577
vn 1.0000 -0.0000 -0.0000
vn 0.9991 -0.0424 -0.0000
vn 0.0156 -0.9999 -0.0000
vn -0.4429 -0.8966 -0.0000
vn -0.0000 -0.9998 0.0189
vn -0.0000 -1.0000 -0.0000
vn -0.0000 -0.0357 -0.9994
vn -0.0000 -0.0357 0.9994
vn -0.9991 -0.0424 -0.0000
vn -1.0000 -0.0000 -0.0000
vn -0.0156 -0.9999 -0.0000
vn 0.4429 -0.8966 -0.0000
vn -0.0000 -0.0000 -1.0000
vn -0.0000 -0.9338 0.3577
vn -0.0000 -0.9998 -0.0189
vt 0.625000 0.500000
vt 0.875000 0.500000
vt 0.875000 0.750000
vt 0.625000 0.750000
vt 0.375000 0.750000
vt 0.625000 1.000000
vt 0.375000 1.000000
vt 0.375000 0.500000
vt 0.000000 0.000000
vt 0.125000 0.500000
vt 0.125000 0.750000
s 0
usemtl Material
f 1/1/1 5/2/1 6/3/1 3/4/1
f 4/5/2 3/4/2 6/6/2 7/7/2
f 11/5/3 9/7/3 13/7/3 15/5/3
f 2/8/1 4/5/1 11/5/1 10/8/1
f 2/8/4 1/1/4 3/4/4 4/5/4
f 4/5/1 7/7/1 9/7/1 11/5/1
f 14/8/5 15/5/5 19/5/5 18/8/5
f 9/9/6 8/9/6 12/9/6 13/9/6
f 10/8/7 11/5/7 15/5/7 14/8/7
f 8/9/8 10/9/8 14/9/8 12/9/8
f 16/10/9 18/8/9 19/5/9 17/11/9
f 12/9/10 14/9/10 18/9/10 16/9/10
f 15/5/11 13/7/11 17/7/11 19/5/11
f 13/9/12 12/9/12 16/9/12 17/9/12
f 20/1/1 22/4/1 6/3/1 5/2/1
f 23/5/2 7/7/2 6/6/2 22/4/2
f 25/5/3 29/5/3 27/7/3 9/7/3
f 21/8/1 24/8/1 25/5/1 23/5/1
f 21/8/13 23/5/13 22/4/13 20/1/13
f 23/5/1 25/5/1 9/7/1 7/7/1
f 28/8/12 32/8/12 33/5/12 29/5/12
f 9/9/14 27/9/14 26/9/14 8/9/14
f 24/8/15 28/8/15 29/5/15 25/5/15
f 8/9/8 26/9/8 28/9/8 24/9/8
f 30/10/9 31/11/9 33/5/9 32/8/9
f 26/9/10 30/9/10 32/9/10 28/9/10
f 29/5/11 33/5/11 31/7/11 27/7/11
f 27/9/5 31/9/5 30/9/5 26/9/5
f 1/1/1 34/4/1 36/3/1 5/2/1
f 35/5/16 37/7/16 36/6/16 34/4/16
f 39/5/17 43/5/17 41/7/17 38/7/17
f 2/8/1 10/8/1 39/5/1 35/5/1
f 2/8/4 35/5/4 34/4/4 1/1/4
f 35/5/1 39/5/1 38/7/1 37/7/1
f 42/8/5 46/8/5 47/5/5 43/5/5
f 38/9/6 41/9/6 40/9/6 8/9/6
f 10/8/7 42/8/7 43/5/7 39/5/7
f 8/9/18 40/9/18 42/9/18 10/9/18
f 44/10/9 45/11/9 47/5/9 46/8/9
f 40/9/11 44/9/11 46/9/11 42/9/11
f 43/5/10 47/5/10 45/7/10 41/7/10
f 41/9/12 45/9/12 44/9/12 40/9/12
f 20/1/1 5/2/1 36/3/1 48/4/1
f 49/5/16 48/4/16 36/6/16 37/7/16
f 50/5/17 38/7/17 52/7/17 54/5/17
f 21/8/1 49/5/1 50/5/1 24/8/1
f 21/8/13 20/1/13 48/4/13 49/5/13
f 49/5/1 37/7/1 38/7/1 50/5/1
f 53/8/12 54/5/12 58/5/12 57/8/12
f 38/9/14 8/9/14 51/9/14 52/9/14
f 24/8/15 50/5/15 54/5/15 53/8/15
f 8/9/18 24/9/18 53/9/18 51/9/18
f 55/10/9 57/8/9 58/5/9 56/11/9
f 51/9/11 53/9/11 57/9/11 55/9/11
f 54/5/10 52/7/10 56/7/10 58/5/10
f 52/9/5 51/9/5 55/9/5 56/9/5
