# Blender 4.5.1 LTS
# www.blender.org
mtllib Komp.mtl
o Cube
v 1.000000 1.000000 -1.000000
v 1.000000 -1.000000 -1.000000
v 1.000000 1.000000 1.000000
v 1.000000 -1.000000 1.000000
v -1.000000 0.516895 -0.516895
v -1.000000 -0.516895 -0.516895
v -1.000000 0.516895 0.516895
v -1.000000 -0.516895 0.516895
v -0.508321 -0.635662 -0.262749
v -0.508321 -0.635662 0.262749
v 0.508321 -0.881234 -0.508321
v 0.508321 -0.881234 0.508321
v -0.596820 -1.002041 -0.262749
v -0.596820 -1.002041 0.262749
v 0.419821 -1.247613 -0.508321
v 0.419821 -1.247613 0.508321
v -0.966353 -1.236268 -0.498791
v -0.993019 -1.240094 0.398463
v 0.828069 -1.351659 -0.865631
v 0.776480 -1.359059 0.870221
vn -0.2348 0.9720 -0.0000
vn -0.2348 -0.0000 0.9720
vn -1.0000 -0.0000 -0.0000
vn -0.2348 -0.9720 -0.0000
vn 1.0000 -0.0000 -0.0000
vn -0.2348 -0.0000 -0.9720
vn 0.9720 -0.2348 -0.0000
vn -0.0401 0.8192 0.5722
vn -0.2222 0.0537 -0.9735
vn -0.2222 0.0537 0.9735
vn -0.9720 0.2348 -0.0000
vn -0.0654 -0.9978 -0.0062
vn -0.5242 0.8515 -0.0075
vn 0.2711 0.9625 0.0077
vn 0.0037 0.8688 -0.4951
vt 0.099500 0.566624
vt 0.099500 0.534591
vt 0.118768 0.505431
vt 0.158817 0.505431
vt 0.099500 0.444238
vt 0.099500 0.476271
vt 0.080232 0.505431
vt 0.989483 0.028218
vt 0.983810 0.995678
vt 0.010475 0.993551
vt 0.016148 0.027928
vt 0.040183 0.505431
vt 0.982325 0.160521
vt 0.008990 0.154773
s 0
usemtl Material
f 1/1/1 5/2/1 7/3/1 3/4/1
f 4/5/2 3/4/2 7/3/2 8/6/2
f 8/6/3 7/3/3 5/2/3 6/7/3
f 4/5/4 8/6/4 10/6/4 12/5/4
f 2/8/5 1/9/5 3/10/5 4/11/5
f 6/7/6 5/2/6 1/1/6 2/12/6
f 11/13/7 12/14/7 16/14/7 15/13/7
f 8/6/4 6/7/4 9/7/4 10/6/4
f 2/13/4 4/14/4 12/14/4 11/13/4
f 6/7/4 2/12/4 11/12/4 9/7/4
f 16/5/8 14/6/8 18/6/8 20/5/8
f 9/7/9 11/12/9 15/12/9 13/7/9
f 12/5/10 10/6/10 14/6/10 16/5/10
f 10/6/11 9/7/11 13/7/11 14/6/11
f 17/7/12 19/12/12 20/5/12 18/6/12
f 14/6/13 13/7/13 17/7/13 18/6/13
f 15/13/14 16/14/14 20/14/14 19/13/14
f 13/7/15 15/12/15 19/12/15 17/7/15
