# Blender 4.5.2 LTS
# www.blender.org
mtllib nedoskybox.mtl
o Cube
v -1.000000 -1.000000 1.000000
v -1.000000 1.000000 1.000000
v -1.000000 -1.000000 -1.000000
v -1.000000 1.000000 -1.000000
v 1.000000 -1.000000 1.000000
v 1.000000 1.000000 1.000000
v 1.000000 -1.000000 -1.000000
v 1.000000 1.000000 -1.000000
vn 1.0000 -0.0000 -0.0000
vn -0.0000 -0.0000 1.0000
vn -1.0000 -0.0000 -0.0000
vn -0.0000 -0.0000 -1.0000
vn -0.0000 1.0000 -0.0000
vn -0.0000 -1.0000 -0.0000
vt 0.997951 0.334341
vt 0.757292 0.334341
vt 0.757292 0.672396
vt 0.997951 0.672396
vt 0.491435 0.334341
vt 0.491435 0.672396
vt 0.248257 0.334088
vt 0.248257 0.673827
vt 0.005078 0.333834
vt 0.005078 0.667830
vt 0.491435 0.003024
vt 0.249517 0.003024
vt 0.249517 0.334341
vt 0.249517 0.672396
vt 0.249517 1.104776
vt 0.491435 1.104776
s 0
usemtl Material.002
f 1/1/1 3/2/1 4/3/1 2/4/1
f 3/2/2 7/5/2 8/6/2 4/3/2
f 7/5/3 5/7/3 6/8/3 8/6/3
f 5/7/4 1/9/4 2/10/4 6/8/4
f 3/11/5 1/12/5 5/13/5 7/5/5
f 8/6/6 6/14/6 2/15/6 4/16/6
