# Blender 4.5.2 LTS
# www.blender.org
mtllib Udoor.mtl
o Cube
v 2.194546 -0.166962 -2.194546
v 2.194546 -0.690159 -2.194546
v 2.194546 -0.166962 2.194546
v 2.194546 -0.690159 2.194546
v -2.194546 -0.166962 -2.194546
v -2.194546 -0.690159 -2.194546
v -2.194546 -0.166962 2.194546
v -2.194546 -0.690159 2.194546
v 1.505341 0.181270 1.505341
v -1.505341 0.181270 1.505341
v 1.505341 0.181270 -1.505341
v -1.505341 0.181270 -1.505341
v 1.505341 -0.001734 1.505341
v -1.505341 -0.001734 1.505341
v 1.505341 -0.001734 -1.505341
v -1.505341 -0.001734 -1.505341
v 1.176475 0.033353 1.176475
v -1.176475 0.033353 1.176475
v 1.176475 0.033353 -1.176475
v -1.176475 0.033353 -1.176475
v 0.959382 0.033353 0.959382
v -0.959382 0.033353 0.959382
v 0.959382 0.033353 -0.959382
v -0.959382 0.033353 -0.959382
v 0.853863 -0.043998 0.853863
v -0.853863 -0.043998 0.853863
v 0.853863 -0.043998 -0.853863
v -0.853863 -0.043998 -0.853863
vn -0.4510 0.8925 -0.0000
vn -0.0000 -0.0000 1.0000
vn -1.0000 -0.0000 -0.0000
vn -0.0000 -1.0000 -0.0000
vn 1.0000 -0.0000 -0.0000
vn -0.0000 -0.0000 -1.0000
vn 0.4510 0.8925 -0.0000
vn -0.0000 0.8925 -0.4510
vn -0.0000 0.8925 0.4510
vn -0.1061 0.9944 -0.0000
vn -0.0000 1.0000 -0.0000
vn -0.0000 0.9944 0.1061
vn -0.0000 0.9944 -0.1061
vn 0.1061 0.9944 -0.0000
vn -0.5912 0.8065 -0.0000
vn 0.5912 0.8065 -0.0000
vn -0.0000 0.8065 -0.5912
vn -0.0000 0.8065 0.5912
vt 0.499807 0.499807
vt 0.000193 0.499807
vt 0.078646 0.421354
vt 0.421354 0.421354
vt 0.500193 0.000193
vt 0.559749 0.000193
vt 0.559749 0.499807
vt 0.500193 0.499807
vt 0.499807 0.999807
vt 0.499807 0.500193
vt 0.000193 0.500193
vt 0.000193 0.999807
vt 0.560136 0.000193
vt 0.619692 0.000193
vt 0.619692 0.499807
vt 0.560136 0.499807
vt 0.650448 0.000193
vt 0.650448 0.499807
vt 0.620079 0.499807
vt 0.620079 0.000193
vt 0.000193 0.000193
vt 0.499807 0.000193
vt 0.421354 0.078646
vt 0.078646 0.078646
vt 0.842901 0.842901
vt 0.500193 0.842901
vt 0.537628 0.805466
vt 0.805466 0.805466
vt 0.681203 0.000193
vt 0.681203 0.499807
vt 0.650834 0.499807
vt 0.650834 0.000193
vt 0.805466 0.537628
vt 0.780755 0.780755
vt 0.780755 0.562340
vt 0.500193 0.500193
vt 0.537628 0.537628
vt 0.842901 0.500193
vt 0.562340 0.562340
vt 0.768743 0.574352
vt 0.574352 0.574352
vt 0.562340 0.780755
vt 0.768743 0.768743
vt 0.574352 0.768743
s 0
usemtl Material
f 5/1/1 7/2/1 10/3/1 12/4/1
f 4/5/2 3/6/2 7/7/2 8/8/2
f 8/8/3 7/7/3 5/6/3 6/5/3
f 6/9/4 2/10/4 4/11/4 8/12/4
f 2/13/5 1/14/5 3/15/5 4/16/5
f 6/16/6 5/15/6 1/14/6 2/13/6
f 11/17/2 12/18/2 16/19/2 15/20/2
f 3/21/7 1/22/7 11/23/7 9/24/7
f 1/22/8 5/1/8 12/4/8 11/23/8
f 7/2/9 3/21/9 9/24/9 10/3/9
f 16/25/10 14/26/10 18/27/10 20/28/10
f 9/18/3 11/17/3 15/20/3 13/19/3
f 12/29/5 10/30/5 14/31/5 16/32/5
f 10/30/6 9/29/6 13/32/6 14/31/6
f 19/33/11 20/28/11 24/34/11 23/35/11
f 14/26/12 13/36/12 17/37/12 18/27/12
f 15/38/13 16/25/13 20/28/13 19/33/13
f 13/36/14 15/38/14 19/33/14 17/37/14
f 21/39/15 23/35/15 27/40/15 25/41/15
f 17/37/11 19/33/11 23/35/11 21/39/11
f 20/28/11 18/27/11 22/42/11 24/34/11
f 18/27/11 17/37/11 21/39/11 22/42/11
f 27/40/11 28/43/11 26/44/11 25/41/11
f 24/34/16 22/42/16 26/44/16 28/43/16
f 22/42/17 21/39/17 25/41/17 26/44/17
f 23/35/18 24/34/18 28/43/18 27/40/18
